<svg xmlns="http://www.w3.org/2000/svg" width="24.907" height="24.907" viewBox="0 0 24.907 24.907"><defs><style>.a{fill:#483699;}</style></defs><path class="a" d="M15.372,24.907H9.535a.73.73,0,0,1-.73-.73V22.258q-.357-.133-.7-.292L6.743,23.324a.73.73,0,0,1-1.032,0L1.584,19.2a.73.73,0,0,1,0-1.032l1.358-1.358q-.159-.347-.292-.7H.73a.73.73,0,0,1-.73-.73V9.535a.73.73,0,0,1,.73-.73h1.92q.133-.357.292-.7L1.584,6.743a.73.73,0,0,1,0-1.032L5.712,1.584a.73.73,0,0,1,1.032,0L8.1,2.941q.347-.159.7-.292V.73A.73.73,0,0,1,9.535,0h5.838a.73.73,0,0,1,.73.73V2.649q.357.133.7.292l1.358-1.358a.73.73,0,0,1,1.032,0l4.128,4.128a.73.73,0,0,1,0,1.032L21.966,8.1q.159.347.292.7h1.919a.73.73,0,0,1,.73.73v5.838a.73.73,0,0,1-.73.73h-1.92q-.133.357-.292.7l1.358,1.358a.73.73,0,0,1,0,1.032L19.2,23.324a.73.73,0,0,1-1.032,0l-1.358-1.358q-.347.159-.7.292v1.919a.73.73,0,0,1-.73.73ZM12.454,6.616a5.838,5.838,0,1,0,5.838,5.838A5.844,5.844,0,0,0,12.454,6.616Z"/><path class="a" d="M213.189,185.378a2.189,2.189,0,1,1,2.189-2.189A2.192,2.192,0,0,1,213.189,185.378Z" transform="translate(-200.735 -172.195)"/><path class="a" d="M190.692,285.311a4.153,4.153,0,0,0-.612-.49,3.637,3.637,0,0,1-4.519,0,4.161,4.161,0,0,0-1.227,1.243,4.373,4.373,0,0,0,6.973,0A4.157,4.157,0,0,0,190.692,285.311Z" transform="translate(-175.367 -270.965)"/></svg>