<svg xmlns="http://www.w3.org/2000/svg" width="34.306" height="20.309" viewBox="0 0 34.306 20.309"><defs><style>.a{fill:#363636;fill-rule:evenodd;}</style></defs><path class="a" d="M34.192,15.111l-2.3-9.772A6.926,6.926,0,0,0,25.151,0h-16A6.926,6.926,0,0,0,2.414,5.339l-2.3,9.772a4.23,4.23,0,0,0,4.118,5.2A3.335,3.335,0,0,0,7.078,18.7l1.771-2.952a1.694,1.694,0,0,1,1.446-.819H24.011a1.694,1.694,0,0,1,1.446.819L27.227,18.7a3.336,3.336,0,0,0,2.848,1.612,4.23,4.23,0,0,0,4.117-5.2ZM12.847,8.468H11.7V9.616a1,1,0,0,1-2.01,0V8.468H8.542a1,1,0,0,1,0-2.01H9.689V5.31a1,1,0,0,1,2.01,0V6.458h1.148a1,1,0,0,1,0,2.01Zm8.611,0a1,1,0,1,1,1.005-1A1.005,1.005,0,0,1,21.458,8.468Zm2.153,2.153a1,1,0,1,1,1-1A1.005,1.005,0,0,1,23.611,10.621Zm0-4.306a1,1,0,1,1,1-1.005A1.005,1.005,0,0,1,23.611,6.315Zm2.153,2.153a1,1,0,1,1,1-1A1.005,1.005,0,0,1,25.764,8.468Zm0,0" transform="translate(0 0)"/></svg>