<svg xmlns="http://www.w3.org/2000/svg" width="21.044" height="20.938" viewBox="0 0 21.044 20.938"><defs><style>.a{fill:#ffffff;}</style></defs><path class="a" d="M3.946,10.141a2.63,2.63,0,1,0-2.63-2.63A2.633,2.633,0,0,0,3.946,10.141Zm9.207,1.315a4.6,4.6,0,1,0-4.6-4.6A4.6,4.6,0,0,0,13.152,11.457Zm3.157,2.157h-.341a6.356,6.356,0,0,1-5.631,0H10a4.736,4.736,0,0,0-4.735,4.735v2.867a1.973,1.973,0,0,0,1.973,1.973H19.071a1.973,1.973,0,0,0,1.973-1.973V18.348A4.736,4.736,0,0,0,16.309,13.614Zm-9.194-.551A2.623,2.623,0,0,0,5.261,12.3H2.63A2.633,2.633,0,0,0,0,14.929v3a1.314,1.314,0,0,0,1.315,1.315H4.024C3.657,15.3,5.458,13.971,7.115,13.063Z" transform="translate(0 -2.25)"/></svg>