<?xml version="1.0" encoding="utf-8"?>
<!-- Generator: Adobe Illustrator 23.1.1, SVG Export Plug-In . SVG Version: 6.00 Build 0)  -->
<svg version="1.1" id="Camada_1" xmlns="http://www.w3.org/2000/svg" xmlns:xlink="http://www.w3.org/1999/xlink" x="0px" y="0px"
	 viewBox="0 0 602.6 471.4" style="enable-background:new 0 0 602.6 471.4;" xml:space="preserve">
<style type="text/css">
	.st0{fill:#50338A;}
	.st1{fill:#FFFFFF;}
</style>
<g>
	<path class="st0" d="M144.3,233.3c6.3-14.2,15.1-26.8,26.1-37.4c3.2-3.1,6.6-6,10.2-8.7v-48.3c0-1.5-0.6-2.8-1.6-3.8
		c-0.2-0.2-0.5-0.5-0.8-0.7c-0.6-0.4-1.2-0.7-1.9-0.8c-0.3-0.1-0.7-0.1-1.1-0.1h-57.7c-1.5,0-2.8,0.6-3.8,1.6c-1,1-1.6,2.3-1.6,3.8
		v125.2c0,7.4-1.8,13.3-5.4,17.7c-3.6,4.4-8.3,6.6-14.1,6.6c-5.8,0-10.8-1.6-15-4.8c-3.1-2.3-6.1-5.3-9-9c-0.3-0.3-0.5-0.6-0.8-0.8
		c-0.1-0.1-0.2-0.1-0.3-0.2c-0.2-0.1-0.4-0.3-0.7-0.4c-0.1-0.1-0.3-0.1-0.4-0.2c-0.2-0.1-0.4-0.2-0.7-0.2c-0.1,0-0.3-0.1-0.4-0.1
		c-0.2,0-0.4-0.1-0.7-0.1c-0.2,0-0.3,0-0.5,0c-0.1,0-0.3,0-0.4,0c-0.2,0-0.4,0.1-0.6,0.1c-0.1,0-0.2,0.1-0.4,0.1
		c-0.2,0.1-0.4,0.2-0.6,0.3c-0.1,0-0.2,0.1-0.3,0.1c-0.3,0.2-0.6,0.3-0.8,0.6c0,0,0,0,0,0l-37.8,31.9c-0.5,0.5-1,1-1.3,1.6
		c-0.2,0.3-0.3,0.6-0.4,0.9c-0.2,0.6-0.3,1.3-0.2,2c0,0.1,0,0.1,0,0.2c0.1,0.9,0.4,1.9,1,2.7c0.3,0.4,0.6,0.8,1,1.2
		c2.8,3.7,5.9,7.2,9.2,10.4c4.9,4.7,10.6,8.8,17,12.3c6.4,3.5,13.6,6.2,21.6,8.1c8,1.9,17,2.9,27,2.9c12.6,0,24.1-2,34.4-6
		c5.6-2.2,10.7-4.9,15.4-8c-1.3-2.5-2.6-5.1-3.8-7.8c-6.2-14.3-9.4-29.8-9.4-46v-0.6C134.7,263.1,138,247.6,144.3,233.3z"/>
	<path class="st0" d="M294,221.6v-46.5c-11.3-3.5-23.3-5.2-36.1-5.2c-16.2,0-31.3,2.9-45.3,8.6c-8.6,3.5-16.5,7.8-23.7,12.9
		c-2.8,2-5.6,4.1-8.2,6.4c-1.5,1.3-3.1,2.7-4.5,4.1c-10.3,9.9-18.4,21.5-24.3,34.8c-5.9,13.3-8.9,27.6-8.9,42.8v0.6
		c0,15.2,2.9,29.5,8.7,42.8c0.9,2.1,1.9,4.1,2.9,6.1c1.3,2.5,2.6,4.9,4.1,7.3c4.8,7.8,10.5,14.9,17.2,21.3
		c10.3,9.8,22.4,17.5,36.3,23.1c13.9,5.6,29,8.4,45.2,8.4c16.2,0,31.3-2.9,45.3-8.6c14-5.7,26.2-13.5,36.5-23.4
		c6.4-6.2,12-13,16.7-20.5V235.1h-48.3C300,235.1,294,229,294,221.6z M293.9,280c0,6.2-0.8,12.1-2.5,17.7
		c-1.7,5.6-4.1,10.6-7.2,14.9c-3.2,4.3-7,7.8-11.5,10.4c-4.5,2.6-9.5,3.9-14.9,3.9c-5.6,0-10.7-1.3-15.2-3.9
		c-4.5-2.6-8.3-6.1-11.5-10.5c-3.2-4.4-5.6-9.5-7.3-15.2c-1.7-5.7-2.6-11.7-2.6-17.9v-0.6c0-6.2,0.8-12.1,2.5-17.7
		c1.7-5.6,4.1-10.6,7.2-14.9c3.2-4.3,7-7.8,11.5-10.4c4.5-2.6,9.5-3.9,14.9-3.9c5.6,0,10.7,1.3,15.2,3.9c4.5,2.6,8.3,6.1,11.5,10.5
		c3.2,4.4,5.6,9.5,7.3,15.2c1.7,5.7,2.6,11.7,2.6,17.9V280z"/>
	<path class="st0" d="M525,137.3h-59.5c-1.5,0-2.8,0.6-3.8,1.6c-1,1-1.6,2.3-1.6,3.8v16.7h30.5c7.5,0,13.5,6.1,13.5,13.5v48.7
		c0,7.5-6.1,13.5-13.5,13.5h-30.5V342c0,3,2.4,5.3,5.3,5.3H525c3,0,5.3-2.4,5.3-5.3V142.6c0-1.5-0.6-2.8-1.6-3.8
		C527.8,137.9,526.5,137.3,525,137.3z"/>
	<path class="st0" d="M364,237.1v83.6v17.9v33.6c0,3,2.4,5.3,5.3,5.3h59.5c3,0,5.3-2.4,5.3-5.3v-140v0c0-0.7,0.1-1.4,0.4-2.1
		c0.3-0.6,0.7-1.2,1.1-1.7c1-1,2.3-1.6,3.8-1.6H452h8.2h30.5c3,0,5.3-2.4,5.3-5.3v-48.7c0-0.7-0.1-1.4-0.4-2.1
		c-0.3-0.6-0.7-1.2-1.1-1.7c-1-1-2.3-1.6-3.8-1.6h-30.5H452H307.5c-1.5,0-2.8,0.6-3.8,1.6c-0.2,0.2-0.3,0.4-0.5,0.5
		c-0.3,0.4-0.5,0.7-0.7,1.1c-0.3,0.6-0.4,1.3-0.4,2.1v5.1v43.7c0,3,2.4,5.3,5.3,5.3h51.1c0.1,0,0.3,0,0.4,0c1.3,0.1,2.5,0.7,3.4,1.5
		c0.5,0.5,0.9,1.1,1.1,1.7c0.3,0.6,0.4,1.3,0.4,2.1v0V237.1z"/>
	<path class="st0" d="M556.3,26.6l-11.6,11.6c26.9,26.9,26.9,70.7,0,97.7l11.6,11.7C589.7,114.2,589.7,59.9,556.3,26.6z"/>
	<path class="st0" d="M445.5,135.9c-26.9-26.9-26.9-70.7,0-97.7l-11.6-11.6c-33.4,33.4-33.4,87.6,0,121L445.5,135.9z"/>
	<path class="st0" d="M535.5,47.4L524,59c15.5,15.5,15.5,40.7,0,56.2l11.6,11.6C557.5,104.9,557.5,69.3,535.5,47.4z"/>
	<path class="st0" d="M454.6,126.8l11.6-11.6c-15.5-15.5-15.5-40.7,0-56.2l-11.6-11.6C432.7,69.3,432.7,104.9,454.6,126.8z"/>
	<path class="st0" d="M479.8,107.4h30.6c2.8,0,5.1-2.5,5.1-5.6V72.3c0-3.1-2.3-5.6-5.1-5.6h-30.6c-2.8,0-5.1,2.5-5.1,5.6v29.6
		C474.7,104.9,477,107.4,479.8,107.4z"/>
</g>
</svg>
